<?xml version="1.0" standalone="no"?>
<!DOCTYPE svg PUBLIC "-//W3C//DTD SVG 20010904//EN"
 "http://www.w3.org/TR/2001/REC-SVG-20010904/DTD/svg10.dtd">
<svg version="1.0" xmlns="http://www.w3.org/2000/svg"
 width="330.000000pt" height="333.000000pt" viewBox="0 0 330.000000 333.000000"
 preserveAspectRatio="xMidYMid meet">
<metadata>
Created by potrace 1.15, written by Peter Selinger 2001-2017
</metadata>
<g transform="translate(0.000000,333.000000) scale(0.100000,-0.100000)"
fill="#000000" stroke="none">
<path d="M1480 2904 l-165 -165 92 -89 c90 -87 92 -90 89 -130 -2 -28 -12 -50
-32 -71 l-28 -29 52 -46 c29 -25 52 -53 52 -62 0 -10 -72 56 -169 152 l-169
168 -161 -162 c-89 -90 -160 -166 -159 -170 2 -4 46 -53 99 -108 l95 -101 57
57 57 58 -40 39 c-22 21 -40 44 -40 50 0 6 23 33 50 60 l50 49 147 -144 c81
-80 151 -151 156 -158 4 -7 12 -10 18 -7 5 4 9 -1 9 -9 0 -9 -3 -16 -7 -16 -5
0 -27 -22 -50 -49 l-43 -49 47 -45 46 -45 -23 -56 c-20 -50 -26 -56 -51 -56
-28 0 -29 -2 -29 -45 0 -37 3 -45 18 -45 52 0 57 -63 7 -103 -19 -15 -35 -35
-35 -45 0 -9 -25 -41 -55 -72 l-55 -55 170 -170 170 -170 167 167 167 167 -26
28 c-14 15 -29 46 -33 68 -5 28 -19 51 -46 77 -21 20 -39 44 -39 53 0 28 20
55 40 55 10 0 21 6 24 13 3 7 42 -26 99 -85 l94 -96 169 169 169 169 -107 107
-107 107 -55 -55 -55 -54 51 -51 50 -52 -53 -55 -54 -56 -157 152 c-135 131
-158 157 -158 183 0 34 16 54 42 54 10 0 18 6 18 14 0 8 3 21 6 30 3 8 -3 22
-15 33 -12 9 -21 28 -21 40 0 13 -6 23 -14 23 -8 0 -16 17 -20 46 -10 76 -7
91 24 141 37 58 38 80 3 94 l-26 10 31 32 32 33 -51 53 c-44 47 -54 53 -69 43
-16 -10 -19 -8 -22 11 -2 18 -11 23 -40 25 -36 3 -38 2 -38 -27 0 -16 -5 -33
-10 -36 -16 -10 -44 3 -58 26 -13 20 -10 26 37 73 l51 51 105 -105 105 -105
57 58 58 57 -160 160 c-88 88 -162 160 -165 160 -3 0 -79 -75 -170 -166z m210
-194 c0 -26 4 -30 28 -30 35 0 41 -6 35 -31 -4 -13 -14 -19 -34 -19 -26 0 -29
-4 -29 -30 0 -16 5 -30 10 -30 6 0 10 -7 10 -15 0 -11 12 -15 50 -15 65 0 70
-13 31 -82 -19 -34 -31 -69 -31 -91 l0 -37 -95 0 -95 0 0 41 c0 29 -9 57 -31
92 -39 63 -34 77 31 77 38 0 50 4 50 15 0 8 6 15 13 15 9 0 12 10 9 30 -4 25
-9 30 -33 30 -24 0 -29 4 -29 25 0 21 5 25 30 25 27 0 30 3 30 30 0 25 4 30
25 30 21 0 25 -5 25 -30z m138 -542 c-3 -23 -5 -23 -163 -23 -158 0 -160 0
-163 23 l-3 22 166 0 166 0 -3 -22z m-56 -165 c4 -92 10 -128 26 -163 12 -25
22 -51 22 -57 0 -10 -38 -13 -155 -13 -85 0 -155 2 -155 4 0 2 11 34 25 70 21
55 25 84 25 171 l0 105 104 0 104 0 4 -117z m91 -253 c23 0 27 -4 27 -27 l0
-28 -220 0 -219 0 -6 23 c-3 13 -4 26 -1 30 2 4 91 6 198 5 106 -2 205 -3 221
-3z m-39 -108 c-6 -36 -3 -41 35 -71 23 -18 41 -41 41 -52 0 -18 -10 -19 -230
-19 l-230 0 0 24 c0 15 12 33 36 51 33 25 36 31 31 66 l-5 39 164 0 164 0 -6
-38z m86 -192 l0 -30 -242 2 -243 3 -3 28 -3 27 245 0 246 0 0 -30z"/>
<path d="M1987 2532 l-108 -108 56 -53 57 -54 52 52 52 51 52 -53 c29 -29 52
-57 52 -62 0 -5 -71 -81 -157 -167 l-158 -158 58 -58 57 -57 217 218 218 217
-170 170 -170 170 -108 -108z"/>
<path d="M1085 2073 c-113 -114 -205 -213 -205 -218 0 -6 73 -83 163 -173
l162 -162 103 103 102 103 -55 54 -55 54 -50 -49 -50 -49 -55 54 c-30 30 -55
59 -55 65 0 6 69 80 154 164 l155 154 -41 46 c-22 25 -46 50 -55 54 -11 7 -65
-43 -218 -200z"/>
<path d="M692 2137 c-29 -29 -52 -57 -52 -63 0 -5 25 -34 55 -64 l55 -54 60
59 60 59 -57 58 c-32 32 -60 58 -63 58 -3 0 -29 -24 -58 -53z"/>
<path d="M2477 2132 l-57 -58 60 -59 60 -59 52 49 c29 28 56 54 60 60 7 10
-89 122 -107 124 -6 0 -36 -25 -68 -57z"/>
<path d="M576 975 c-169 -69 -286 -214 -288 -355 -1 -87 34 -149 105 -187 46
-24 257 -33 257 -10 0 8 3 22 6 30 4 12 -11 15 -88 19 -112 5 -155 25 -183 88
-22 49 -16 129 14 188 29 57 102 126 169 159 49 24 71 28 159 31 94 4 102 5
107 25 3 12 6 25 6 30 0 4 -46 7 -102 7 -86 0 -113 -5 -162 -25z"/>
<path d="M861 970 c-9 -27 -8 -30 9 -30 17 0 10 -28 -70 -261 -50 -144 -90
-263 -90 -265 0 -2 17 -4 39 -4 l38 0 47 138 c78 227 66 207 126 210 64 4 104
-11 119 -44 17 -38 14 -57 -29 -181 -22 -64 -40 -118 -40 -120 0 -1 17 -3 39
-3 38 0 39 1 61 63 63 172 73 237 43 288 -25 42 -69 59 -152 59 -39 0 -71 2
-71 4 0 3 12 37 26 76 14 39 23 78 20 86 -4 9 -21 14 -55 14 -46 0 -50 -2 -60
-30z"/>
<path d="M1380 799 c-175 -79 -242 -317 -105 -375 36 -15 275 -21 275 -6 0 4
3 17 6 30 6 22 5 22 -96 22 -77 0 -109 4 -130 17 -30 17 -50 51 -50 83 0 19 8
20 164 20 l164 0 11 31 c26 76 2 157 -54 183 -46 22 -130 20 -185 -5z m118
-45 c25 -7 52 -51 52 -84 0 -19 -6 -20 -120 -20 l-121 0 12 22 c33 62 113 99
177 82z"/>
<path d="M1785 804 c-46 -24 -66 -45 -86 -90 -22 -50 -16 -98 15 -119 14 -10
47 -15 102 -15 90 0 109 -10 99 -52 -11 -45 -51 -58 -177 -58 -113 0 -115 0
-126 -25 -7 -14 -12 -28 -12 -30 0 -3 59 -5 132 -5 111 0 138 3 173 20 51 25
86 70 92 120 5 32 1 43 -20 64 -23 23 -34 26 -101 26 -41 0 -81 3 -90 6 -26
10 -20 61 10 89 26 24 33 25 149 25 119 0 123 1 129 23 3 12 6 25 6 30 0 4
-60 7 -132 7 -101 0 -140 -4 -163 -16z"/>
<path d="M2185 804 c-97 -50 -135 -176 -64 -211 13 -7 58 -13 100 -13 84 0
104 -11 94 -52 -11 -45 -51 -58 -177 -58 -113 0 -115 0 -126 -25 -7 -14 -12
-28 -12 -30 0 -3 59 -5 132 -5 111 0 138 3 173 20 51 25 86 70 92 120 5 32 1
43 -20 64 -23 23 -34 26 -101 26 -41 0 -81 3 -90 6 -26 10 -20 61 10 89 26 24
33 25 149 25 119 0 123 1 129 23 3 12 6 25 6 30 0 4 -60 7 -132 7 -101 0 -140
-4 -163 -16z"/>
<path d="M2599 793 c-5 -16 -12 -34 -14 -40 -3 -8 -22 -13 -49 -13 -40 0 -45
-3 -55 -30 l-10 -30 45 0 c24 0 44 -2 44 -4 0 -2 -7 -20 -15 -39 -20 -48 -21
-47 24 -47 40 0 42 3 65 73 4 13 16 17 51 17 40 0 47 3 55 26 6 14 10 27 10
30 0 2 -20 4 -45 4 l-44 0 14 40 14 40 -40 0 c-34 0 -41 -4 -50 -27z"/>
<path d="M2869 793 c-5 -16 -12 -34 -14 -40 -3 -8 -22 -13 -49 -13 -40 0 -45
-3 -55 -30 l-10 -30 45 0 c24 0 44 -2 44 -4 0 -2 -7 -20 -15 -39 -20 -48 -21
-47 24 -47 37 0 40 2 57 45 16 44 18 45 61 45 38 0 45 3 53 26 6 14 10 27 10
30 0 2 -20 4 -45 4 l-44 0 14 40 14 40 -40 0 c-34 0 -41 -4 -50 -27z"/>
</g>
</svg>
